{
	"asset":{
		"generator":"Khronos glTF Blender I/O v4.0.44",
		"version":"2.0"
	},
	"extensionsUsed":[
		"KHR_lights_punctual"
	],
	"extensionsRequired":[
		"KHR_lights_punctual"
	],
	"extensions":{
		"KHR_lights_punctual":{
			"lights":[
				{
					"color":[
						1,
						0.4443163275718689,
						0.7299821376800537
					],
					"intensity":69406.75448513165,
					"spot":{
						"innerConeAngle":0.11967290756186344,
						"outerConeAngle":0.6401827335357666
					},
					"type":"spot",
					"name":"Light"
				}
			]
		}
	},
	"scene":0,
	"scenes":[
		{
			"name":"Scene",
			"nodes":[
				3,
				4,
				5,
				6
			]
		}
	],
	"nodes":[
		{
			"name":"Object_2"
		},
		{
			"mesh":0,
			"name":"Object_4",
			"translation":[
				0,
				6.460050582885742,
				1.6028869152069092
			]
		},
		{
			"children":[
				0,
				1
			],
			"name":"lp5.obj.cleaner.materialmerger.gles"
		},
		{
			"children":[
				2
			],
			"name":"house",
			"rotation":[
				-0.70710688829422,
				0,
				0,
				0.7071066498756409
			]
		},
		{
			"extensions":{
				"KHR_lights_punctual":{
					"light":0
				}
			},
			"name":"Light",
			"rotation":[
				-0.17074160277843475,
				0.38493219017982483,
				0.5158150792121887,
				0.7460625767707825
			],
			"translation":[
				4.076245307922363,
				5.903861999511719,
				-1.0054539442062378
			]
		},
		{
			"camera":0,
			"name":"Camera",
			"rotation":[
				-0.20997299253940582,
				0.3857799470424652,
				0.09062844514846802,
				0.8937962055206299
			],
			"translation":[
				7.358891487121582,
				4.958309173583984,
				6.925790786743164
			]
		},
		{
			"name":"Light.001",
			"rotation":[
				-0.23128026723861694,
				-0.042221229523420334,
				0.9282991886138916,
				0.2880754768848419
			],
			"translation":[
				-7.088966369628906,
				5.903861999511719,
				-1.0054539442062378
			]
		}
	],
	"cameras":[
		{
			"name":"Camera",
			"perspective":{
				"aspectRatio":1.7777777777777777,
				"yfov":0.39959652046304894,
				"zfar":100,
				"znear":0.10000000149011612
			},
			"type":"perspective"
		}
	],
	"materials":[
		{
			"doubleSided":true,
			"emissiveFactor":[
				1,
				1,
				1
			],
			"emissiveTexture":{
				"index":0
			},
			"name":"mushroom_mat",
			"normalTexture":{
				"index":1
			},
			"occlusionTexture":{
				"index":2
			},
			"pbrMetallicRoughness":{
				"baseColorTexture":{
					"index":3
				},
				"metallicRoughnessTexture":{
					"index":2
				}
			}
		}
	],
	"meshes":[
		{
			"name":"Object_2",
			"primitives":[
				{
					"attributes":{
						"POSITION":0,
						"NORMAL":1,
						"TEXCOORD_0":2
					},
					"indices":3,
					"material":0
				}
			]
		}
	],
	"textures":[
		{
			"sampler":0,
			"source":0
		},
		{
			"sampler":0,
			"source":1
		},
		{
			"sampler":0,
			"source":2
		},
		{
			"sampler":0,
			"source":3
		}
	],
	"images":[
		{
			"mimeType":"image/png",
			"name":"Image_2",
			"uri":"images2/Image_2.png"
		},
		{
			"mimeType":"image/png",
			"name":"Image_3",
			"uri":"images2/Image_3.png"
		},
		{
			"mimeType":"image/png",
			"name":"Image_1",
			"uri":"images2/Image_1.png"
		},
		{
			"mimeType":"image/jpeg",
			"name":"Image_0",
			"uri":"images2/Image_0.jpg"
		}
	],
	"accessors":[
		{
			"bufferView":0,
			"componentType":5126,
			"count":9755,
			"max":[
				4.752265930175781,
				5.10752010345459,
				7.9755940437316895
			],
			"min":[
				-4.838840007781982,
				-4.188852787017822,
				-2.664602041244507
			],
			"type":"VEC3"
		},
		{
			"bufferView":1,
			"componentType":5126,
			"count":9755,
			"type":"VEC3"
		},
		{
			"bufferView":2,
			"componentType":5126,
			"count":9755,
			"type":"VEC2"
		},
		{
			"bufferView":3,
			"componentType":5123,
			"count":31821,
			"type":"SCALAR"
		}
	],
	"bufferViews":[
		{
			"buffer":0,
			"byteLength":117060,
			"byteOffset":0,
			"target":34962
		},
		{
			"buffer":0,
			"byteLength":117060,
			"byteOffset":117060,
			"target":34962
		},
		{
			"buffer":0,
			"byteLength":78040,
			"byteOffset":234120,
			"target":34962
		},
		{
			"buffer":0,
			"byteLength":63642,
			"byteOffset":312160,
			"target":34963
		}
	],
	"samplers":[
		{
			"magFilter":9729,
			"minFilter":9987
		}
	],
	"buffers":[
		{
			"byteLength":375804,
			"uri":"mash.bin"
		}
	]
}
